<svg width="87" height="36" viewBox="0 0 87 36" fill="none" xmlns="http://www.w3.org/2000/svg">
<path fill-rule="evenodd" clip-rule="evenodd" d="M7.42582 8.48961C7.42582 8.35976 7.34347 8.23522 7.19688 8.1434C7.05028 8.05158 6.85146 8 6.64415 8H4.68999C4.48268 8 4.28386 8.05158 4.13727 8.1434C3.99068 8.23522 3.90833 8.35976 3.90833 8.48961V14.454C3.908 14.5031 3.89136 14.5515 3.85946 14.5963C3.82757 14.641 3.78111 14.6811 3.72307 14.714C2.55166 15.3749 1.61494 16.1825 0.973587 17.0845C0.332229 17.9866 0.000538423 18.963 0 19.9504V26.5034C0 27.1007 0.773067 27.5844 1.72592 27.5844H9.10171C9.59013 27.5844 10.0586 27.4629 10.4039 27.2466C10.7493 27.0302 10.9433 26.7368 10.9433 26.4309V19.7815C10.9433 17.8808 9.73798 16.058 7.59231 14.714C7.48595 14.6472 7.4261 14.5567 7.42582 14.4624V8.48961ZM1.56333 20.2403H9.37998V24.1571H1.56333V20.2403ZM20.0411 17.7922H14.3514L14.8516 14.8545H19.5416L20.0411 17.7922ZM13.4446 13.8753H20.9486L21.7405 18.5442C21.8628 19.2667 21.5422 19.9913 20.8437 20.5712C20.1452 21.1512 19.1209 21.5432 17.9783 21.668V26.6052H20.3233C20.5306 26.6052 20.7294 26.6568 20.876 26.7486C21.0226 26.8404 21.105 26.965 21.105 27.0948C21.105 27.2247 21.0226 27.3492 20.876 27.441C20.7294 27.5328 20.5306 27.5844 20.3233 27.5844H14.07C13.8627 27.5844 13.6638 27.5328 13.5173 27.441C13.3707 27.3492 13.2883 27.2247 13.2883 27.0948C13.2883 26.965 13.3707 26.8404 13.5173 26.7486C13.6638 26.6568 13.8627 26.6052 14.07 26.6052H16.415V21.6675C15.2725 21.5427 14.2484 21.1508 13.5499 20.5709C12.8514 19.991 12.5307 19.2666 12.6528 18.5442L13.4446 13.8753Z" fill="#F24E1E"/>
<path d="M30.3252 7.99414C30.9502 8.01367 31.4971 8.02344 31.9658 8.02344C32.4346 8.00391 32.8154 7.99414 33.1084 7.99414H33.958C34.1729 7.97461 34.4365 7.96484 34.749 7.96484C35.0225 7.96484 35.3545 7.96484 35.7451 7.96484C36.1357 7.96484 36.585 7.97461 37.0928 7.99414C37.249 8.54102 37.4248 9.07812 37.6201 9.60547C37.835 10.1133 38.0205 10.5723 38.1768 10.9824C38.3721 11.4707 38.5674 11.9297 38.7627 12.3594C38.958 12.7891 39.1924 13.3066 39.4658 13.9121C39.7002 14.4199 39.9834 15.0449 40.3154 15.7871C40.6475 16.5098 41.0381 17.3398 41.4873 18.2773C41.7021 17.6719 41.8975 17.1152 42.0732 16.6074C42.2686 16.0996 42.4346 15.6602 42.5713 15.2891C42.7275 14.8594 42.8545 14.4688 42.9521 14.1172C43.0498 13.7656 43.1572 13.3359 43.2744 12.8281C43.3721 12.3984 43.4795 11.8809 43.5967 11.2754C43.7334 10.6699 43.8701 9.9668 44.0068 9.16602C44.5732 9.16602 45.0811 9.16602 45.5303 9.16602C45.9795 9.16602 46.3701 9.15625 46.7021 9.13672C47.0732 9.13672 47.4053 9.12695 47.6982 9.10742C48.0107 9.10742 48.4307 9.08789 48.958 9.04883C49.4072 9.00977 50.0029 8.98047 50.7451 8.96094C51.5068 8.92187 52.4443 8.87305 53.5576 8.81445C53.1475 9.10742 52.8154 9.40039 52.5615 9.69336C52.3271 9.9668 52.1416 10.2109 52.0049 10.4258C51.8486 10.6797 51.751 10.9238 51.7119 11.1582C51.6729 11.3535 51.6338 11.8027 51.5947 12.5059C51.5752 13.209 51.5459 14.0488 51.5068 15.0254C51.4873 15.9824 51.4678 17.0078 51.4482 18.1016C51.4482 19.1953 51.458 20.2305 51.4775 21.207C51.4971 22.1836 51.5264 23.0332 51.5654 23.7559C51.624 24.459 51.7021 24.9082 51.7998 25.1035C51.9365 25.3379 52.1221 25.6113 52.3564 25.9238C52.5713 26.1973 52.8447 26.5098 53.1768 26.8613C53.5283 27.2129 53.9873 27.6035 54.5537 28.0332C53.6553 28.0723 52.9033 28.1016 52.2979 28.1211C51.7119 28.1406 51.2236 28.1602 50.833 28.1797C50.3838 28.1992 50.0225 28.209 49.749 28.209C49.4561 28.209 49.0557 28.2188 48.5479 28.2383C48.0986 28.2578 47.5029 28.2871 46.7607 28.3262C46.0186 28.3457 45.0615 28.3848 43.8896 28.4434C44.1631 28.1309 44.417 27.8184 44.6514 27.5059C44.8857 27.1934 45.0811 26.9102 45.2373 26.6562C45.4326 26.3633 45.5986 26.0801 45.7354 25.8066C45.8721 25.4355 45.9795 24.7617 46.0576 23.7852C46.1357 22.9453 46.1943 21.7441 46.2334 20.1816C46.2725 18.5996 46.2725 16.4805 46.2334 13.8242C45.8623 14.4297 45.5303 15.0352 45.2373 15.6406C44.9639 16.2266 44.7197 16.7637 44.5049 17.252C44.2705 17.8184 44.0557 18.3652 43.8604 18.8926C43.665 19.4395 43.46 20.0449 43.2451 20.709C43.0498 21.2754 42.8154 21.9492 42.542 22.7305C42.2881 23.5117 41.9951 24.3711 41.6631 25.3086L40.5498 25.3672C40.3936 24.5859 40.2373 23.8828 40.0811 23.2578C39.9248 22.6133 39.7686 22.0664 39.6123 21.6172C39.4365 21.0898 39.2607 20.6211 39.085 20.2109C38.8896 19.8008 38.6748 19.3418 38.4404 18.834C38.2256 18.4043 37.9619 17.8965 37.6494 17.3105C37.3564 16.7246 37.0146 16.0703 36.624 15.3477C36.4287 17.3398 36.3115 18.9609 36.2725 20.2109C36.2334 21.4414 36.2334 22.3984 36.2725 23.082C36.3115 23.9023 36.3701 24.498 36.4482 24.8691C36.5654 25.2012 36.751 25.5723 37.0049 25.9824C37.2197 26.334 37.5127 26.7539 37.8838 27.2422C38.2744 27.7109 38.7725 28.2383 39.3779 28.8242C38.9482 28.8242 38.499 28.8242 38.0303 28.8242C37.5615 28.8242 37.1318 28.834 36.7412 28.8535C36.2725 28.873 35.8135 28.8828 35.3643 28.8828C34.8955 28.9023 34.3486 28.9316 33.7236 28.9707C33.1768 29.0098 32.5225 29.0488 31.7607 29.0879C30.999 29.127 30.1201 29.1953 29.124 29.293C29.5537 29.0195 29.9053 28.7559 30.1787 28.502C30.4521 28.2285 30.667 27.9844 30.8232 27.7695C31.0186 27.5156 31.165 27.2617 31.2627 27.0078C31.3213 26.8516 31.3701 26.5098 31.4092 25.9824C31.4678 25.4551 31.5166 24.8105 31.5557 24.0488C31.6143 23.2871 31.6533 22.4375 31.6729 21.5C31.7119 20.5625 31.7412 19.6152 31.7607 18.6582C31.7998 17.6816 31.8291 16.7344 31.8486 15.8164C31.8682 14.8789 31.8779 14.0391 31.8779 13.2969C31.8975 12.5352 31.9072 11.9004 31.9072 11.3926C31.9072 10.8848 31.9072 10.5625 31.9072 10.4258C31.8486 10.1328 31.7607 9.83984 31.6436 9.54688C31.5459 9.29297 31.3896 9.0293 31.1748 8.75586C30.96 8.48242 30.6768 8.22852 30.3252 7.99414ZM56.458 17.1348C56.5557 17.0176 56.6143 16.8027 56.6338 16.4902C56.6729 16.1582 56.751 15.7871 56.8682 15.377C57.0049 14.9668 57.2295 14.5371 57.542 14.0879C57.8545 13.6387 58.3623 13.2188 59.0654 12.8281C59.749 12.4375 60.4131 12.2031 61.0576 12.125C61.7021 12.0469 62.3174 12.0762 62.9033 12.2129C63.4893 12.3496 64.0361 12.5645 64.5439 12.8574C65.0713 13.1504 65.5498 13.4727 65.9795 13.8242C66.2725 14.0586 66.5068 14.4004 66.6826 14.8496C66.8584 15.2793 66.9951 15.7676 67.0928 16.3145C67.1904 16.8613 67.2588 17.4375 67.2979 18.043C67.3564 18.6289 67.3955 19.2051 67.415 19.7715C67.4346 20.3184 67.4443 20.8262 67.4443 21.2949C67.4639 21.7441 67.5029 22.1152 67.5615 22.4082C67.6396 22.8379 67.7764 23.209 67.9717 23.5215C68.167 23.8145 68.3818 24.0684 68.6162 24.2832C68.8506 24.4785 69.085 24.6348 69.3193 24.752C69.5537 24.8691 69.7588 24.957 69.9346 25.0156C70.0518 25.0742 70.1592 25.1133 70.2568 25.1328C70.4521 25.2109 70.5889 25.2109 70.667 25.1328C70.5498 25.4062 70.4424 25.6406 70.3447 25.8359C70.2471 26.0312 70.1689 26.1973 70.1104 26.334C70.0322 26.4902 69.9639 26.6172 69.9053 26.7148C69.8467 26.832 69.7783 26.9395 69.7002 27.0371C69.6416 27.1348 69.5635 27.2422 69.4658 27.3594C69.3682 27.4766 69.2705 27.6035 69.1729 27.7402C68.9189 27.6426 68.6748 27.5254 68.4404 27.3887C68.2256 27.252 68.0303 27.125 67.8545 27.0078C67.6396 26.8711 67.4443 26.7344 67.2686 26.5977C67.0928 26.4609 66.9268 26.3047 66.7705 26.1289C66.6338 25.9727 66.4873 25.8066 66.3311 25.6309C66.1943 25.4551 66.0771 25.2598 65.9795 25.0449C65.8623 25.2988 65.5791 25.6602 65.1299 26.1289C64.7002 26.5977 64.1338 27.0273 63.4307 27.418C62.7275 27.7891 61.9072 28.0527 60.9697 28.209C60.0518 28.3652 59.0361 28.2578 57.9229 27.8867C57.4346 27.7305 56.9756 27.5059 56.5459 27.2129C56.1162 26.9004 55.7451 26.5293 55.4326 26.0996C55.1396 25.6699 54.9248 25.1816 54.7881 24.6348C54.6709 24.0684 54.6807 23.4434 54.8174 22.7598C54.9541 22.0762 55.1982 21.5 55.5498 21.0312C55.9014 20.5625 56.3213 20.1816 56.8096 19.8887C57.2979 19.5957 57.8447 19.3711 58.4502 19.2148C59.0557 19.0586 59.6807 18.9512 60.3252 18.8926C60.833 18.873 61.3408 18.9023 61.8486 18.9805C62.2783 19.0586 62.7275 19.2051 63.1963 19.4199C63.665 19.6152 64.0654 19.918 64.3975 20.3281C64.3779 19.293 64.3389 18.4727 64.2803 17.8672C64.2412 17.2422 64.2021 16.7637 64.1631 16.4316C64.085 16.041 64.0166 15.7676 63.958 15.6113C63.8604 15.4746 63.7529 15.3184 63.6357 15.1426C63.5381 14.9668 63.4111 14.8105 63.2549 14.6738C63.0986 14.5176 62.9033 14.3906 62.6689 14.293C62.4346 14.1953 62.1611 14.1562 61.8486 14.1758C61.5166 14.1953 61.2529 14.2832 61.0576 14.4395C60.8623 14.5957 60.7061 14.7812 60.5889 14.9961C60.4912 15.1914 60.4326 15.4062 60.4131 15.6406C60.3936 15.875 60.4033 16.0801 60.4424 16.2559C60.4814 16.373 60.54 16.5 60.6182 16.6367C60.6963 16.7539 60.8037 16.8809 60.9404 17.0176C61.0771 17.1543 61.2627 17.2715 61.4971 17.3691C61.0479 17.4277 60.6475 17.4766 60.2959 17.5156C59.9443 17.5352 59.6416 17.5645 59.3877 17.6035C59.0947 17.6426 58.8408 17.6719 58.626 17.6914C58.4111 17.7109 58.1572 17.75 57.8643 17.8086C57.6104 17.8477 57.2979 17.8965 56.9268 17.9551C56.5557 18.0137 56.126 18.0918 55.6377 18.1895C55.7549 18.0527 55.8623 17.9258 55.96 17.8086C56.0576 17.6719 56.1455 17.5547 56.2236 17.457C56.3018 17.3398 56.3799 17.2324 56.458 17.1348ZM60.8525 20.6211C60.501 20.6406 60.1494 20.7285 59.7979 20.8848C59.4463 21.0215 59.1338 21.2266 58.8604 21.5C58.5869 21.7539 58.3525 22.0566 58.1572 22.4082C57.9814 22.7402 57.8936 23.1113 57.8936 23.5215C57.8936 23.9316 57.9912 24.293 58.1865 24.6055C58.4014 24.8984 58.6748 25.1426 59.0068 25.3379C59.3584 25.5332 59.7295 25.6504 60.1201 25.6895C60.5303 25.7285 60.9307 25.6895 61.3213 25.5723C61.6924 25.4355 62.0439 25.2207 62.376 24.9277C62.708 24.6152 62.9912 24.2832 63.2256 23.9316C63.46 23.5605 63.626 23.1992 63.7236 22.8477C63.8213 22.4766 63.8311 22.1738 63.7529 21.9395C63.5967 21.4316 63.2451 21.0801 62.6982 20.8848C62.1514 20.6699 61.5361 20.582 60.8525 20.6211ZM69.2607 12.7402C69.8271 12.7402 70.2959 12.75 70.667 12.7695C71.0381 12.7695 71.3311 12.7695 71.5459 12.7695H72.1318H72.8057C73.0791 12.7695 73.4404 12.7695 73.8896 12.7695C74.3584 12.75 74.9639 12.7207 75.7061 12.6816C75.3545 12.7598 75.0811 12.8477 74.8857 12.9453C74.6904 13.0234 74.5439 13.1113 74.4463 13.209C74.3291 13.3066 74.2607 13.4141 74.2412 13.5312C74.2607 13.6875 74.3291 13.9316 74.4463 14.2637C74.5439 14.5566 74.71 14.957 74.9443 15.4648C75.1982 15.9727 75.5693 16.6562 76.0576 17.5156C76.8779 16.5781 77.5029 15.8359 77.9326 15.2891C78.3623 14.7422 78.6846 14.3223 78.8994 14.0293C79.1143 13.6973 79.2412 13.4727 79.2803 13.3555C79.2607 13.2578 79.2314 13.1602 79.1924 13.0625C79.1338 12.9062 78.9873 12.6621 78.7529 12.3301C79.2803 12.3691 79.7393 12.3984 80.1299 12.418C80.5205 12.418 80.8525 12.4277 81.126 12.4473C81.4385 12.4668 81.6924 12.4766 81.8877 12.4766C82.1025 12.4766 82.415 12.4668 82.8252 12.4473C83.1572 12.4277 83.6064 12.4082 84.1729 12.3887C84.7588 12.3496 85.4912 12.291 86.3701 12.2129C85.6475 12.5645 85.0322 12.9062 84.5244 13.2383C84.0166 13.5508 83.5967 13.834 83.2646 14.0879C82.874 14.3809 82.5518 14.6543 82.2979 14.9082C82.0439 15.2012 81.7314 15.5625 81.3604 15.9922C81.0283 16.3828 80.6182 16.8711 80.1299 17.457C79.6611 18.0234 79.085 18.7363 78.4014 19.5957C78.9092 20.4746 79.3877 21.2266 79.8369 21.8516C80.3057 22.4766 80.7061 22.9941 81.0381 23.4043C81.4287 23.8926 81.79 24.2832 82.1221 24.5762C82.4541 24.8691 82.8154 25.1621 83.2061 25.4551C83.5381 25.709 83.9189 25.9824 84.3486 26.2754C84.7979 26.5488 85.2764 26.793 85.7842 27.0078C85.2764 27.0469 84.7783 27.0762 84.29 27.0957C83.8213 27.0957 83.4014 27.1152 83.0303 27.1543C82.6006 27.1934 82.1904 27.2227 81.7998 27.2422C81.4092 27.2812 81.0088 27.3105 80.5986 27.3301C80.2471 27.3496 79.8564 27.3691 79.4268 27.3887C78.9971 27.4082 78.5576 27.418 78.1084 27.418C78.2842 27.2422 78.4209 27.0762 78.5186 26.9199C78.6162 26.7637 78.6943 26.627 78.7529 26.5098C78.8311 26.373 78.8799 26.2461 78.8994 26.1289C78.8799 25.9727 78.7822 25.7188 78.6064 25.3672C78.4502 25.0547 78.2061 24.625 77.874 24.0781C77.542 23.5117 77.0537 22.75 76.4092 21.793C75.96 22.2617 75.5986 22.6719 75.3252 23.0234C75.0713 23.375 74.876 23.668 74.7393 23.9023C74.583 24.1758 74.4756 24.4004 74.417 24.5762C74.3779 24.752 74.3779 24.9473 74.417 25.1621C74.4561 25.3379 74.5146 25.5527 74.5928 25.8066C74.6709 26.041 74.8076 26.2852 75.0029 26.5391C74.0264 26.5977 73.2061 26.627 72.542 26.627H71.5459C71.2334 26.627 70.8623 26.6172 70.4326 26.5977C70.0615 26.5781 69.6025 26.5684 69.0557 26.5684C68.4893 26.5488 67.835 26.5195 67.0928 26.4805C67.3076 26.4023 67.5322 26.3047 67.7666 26.1875C68.001 26.0703 68.2061 25.9629 68.3818 25.8652C68.5967 25.748 68.8018 25.6211 68.9971 25.4844C69.2119 25.3086 69.5537 24.9766 70.0225 24.4883C70.4131 24.0781 70.9502 23.502 71.6338 22.7598C72.3174 21.998 73.2061 20.9824 74.2998 19.7129C73.6553 18.541 73.1279 17.6133 72.7178 16.9297C72.3271 16.2266 72.0244 15.6797 71.8096 15.2891C71.5557 14.8398 71.3701 14.5371 71.2529 14.3809C71.1357 14.2246 70.9795 14.0488 70.7842 13.8535C70.4717 13.541 69.9639 13.1699 69.2607 12.7402Z" fill="#F24E1E"/>
</svg>
