<svg width="250" height="60" viewBox="0 0 250 60" fill="none" xmlns="http://www.w3.org/2000/svg">
<g clip-path="url(#clip0_11164_9)">
<rect width="250" height="60" fill="white"/>
<path d="M33.1836 2C26.4975 7.29184 23.7298 6.43086 21.4286 2.02578C23.3736 9.2348 22.6482 9.80879 16.1879 15.6891C24.0775 11.5095 27.4621 11.6769 31.536 16.5314C27.4454 10.3073 27.9086 7.70129 33.1836 2.00012V2ZM35.3407 2.01477L36.7104 15.4841L25.0063 22.292L36.4614 24.7638C35.3387 25.7425 34.0925 26.9936 32.7957 28.2905L32.792 28.2941L6 54.7822V57.0601H9.76828L35.857 31.352C37.0594 30.1493 38.0721 29.0623 38.8781 28.1L41.0974 38.3832L47.9053 26.6791L61.3746 28.0488L52.3477 17.9596L57.815 5.5741L45.4295 11.0417L35.3406 2.01477H35.3407ZM6.97406 5.97359C10.9309 9.215 11.1002 10.9854 10.5776 16.2603C12.8012 9.96383 13.8546 8.37394 18.1362 6.65094C13.5479 7.74969 11.5836 7.97305 6.97406 5.97383V5.97359ZM13.3901 17.9743C16.3145 21.1398 16.5506 23.0935 16.2319 26.4191C17.9633 22.382 18.8184 21.0683 22.7504 18.8825C18.7004 20.193 17.4184 20.0802 13.3901 17.9743ZM51.5456 29.1071C52.632 35.165 51.0054 37.7448 47.6966 41.6095C52.7708 37.2685 54.4761 36.42 59.0455 37.0685C54.5224 35.7259 53.4878 34.6516 51.5455 29.1072L51.5456 29.1071ZM45.0232 37.6398C42.8312 45.7011 39.7141 47.477 32.4109 45.8575C38.7538 48.213 39.0132 48.3267 38.6842 55.8478C41.5854 49.3532 44.1322 49.7286 49.824 51.4864C44.9285 47.7554 44.4674 45.7477 45.0232 37.6399V37.6398ZM57.837 44.1988C56.0416 46.3074 55.1496 46.2484 52.7027 45.2936C55.3779 47.455 54.7648 49.2808 53.9735 52.2552C55.8544 50.0145 56.7293 49.2977 59.8695 50.7683C57.1905 48.2673 56.6902 47.2694 57.837 44.1985V44.1988Z" fill="#9747FF"/>
<path d="M78.68 51.52C78.2 51.52 77.72 51.376 77.24 51.088C76.76 50.768 76.424 50.352 76.232 49.84V48.352C76.232 47.488 76.376 46.64 76.664 45.808C76.952 44.976 77.112 44.128 77.144 43.264C76.472 43.264 75.784 43.248 75.08 43.216C74.408 43.152 73.832 42.944 73.352 42.592C72.904 42.208 72.68 41.536 72.68 40.576C72.68 39.616 72.92 38.944 73.4 38.56C73.912 38.176 74.536 37.936 75.272 37.84C76.008 37.744 76.728 37.664 77.432 37.6C78.136 37.536 78.696 37.328 79.112 36.976L79.832 36.256C80.088 35.84 80.264 35.376 80.36 34.864C80.456 34.352 80.648 33.888 80.936 33.472C81.128 33.056 81.432 32.416 81.848 31.552C82.296 30.688 82.76 29.76 83.24 28.768C83.72 27.776 84.168 26.88 84.584 26.08C85 25.28 85.288 24.736 85.448 24.448C85.768 23.904 86.168 23.248 86.648 22.48C87.16 21.68 87.736 20.976 88.376 20.368C89.048 19.76 89.736 19.456 90.44 19.456C91.496 19.456 92.344 19.776 92.984 20.416C93.656 21.024 94.2 21.776 94.616 22.672C95.032 23.536 95.416 24.352 95.768 25.12C97.304 28.544 98.68 32.112 99.896 35.824C101.144 39.536 102.136 43.248 102.872 46.96V47.68C102.872 48.288 102.648 48.928 102.2 49.6C101.784 50.24 101.272 50.56 100.664 50.56C99.768 50.56 99.08 50.32 98.6 49.84C98.12 49.36 97.768 48.752 97.544 48.016C97.32 47.28 97.144 46.512 97.016 45.712C96.92 44.912 96.776 44.192 96.584 43.552C96.392 42.88 96.072 42.384 95.624 42.064H91.4C90.92 42.064 90.408 42.064 89.864 42.064C89.32 42.032 88.776 42.016 88.232 42.016C87.56 42.016 86.888 42.048 86.216 42.112C85.576 42.176 84.968 42.32 84.392 42.544C83.656 42.8 83.128 43.28 82.808 43.984C82.488 44.656 82.248 45.424 82.088 46.288C81.928 47.12 81.752 47.936 81.56 48.736C81.368 49.536 81.064 50.208 80.648 50.752C80.232 51.264 79.576 51.52 78.68 51.52ZM85.976 36.688H87.176C88.264 36.688 89.272 36.688 90.2 36.688C91.16 36.656 92.424 36.592 93.992 36.496V36.064C93.992 35.712 93.944 35.376 93.848 35.056C93.784 34.704 93.672 34.352 93.512 34C93.288 33.296 92.984 32.464 92.6 31.504C92.216 30.512 91.848 29.6 91.496 28.768C91.144 27.904 90.888 27.312 90.728 26.992C90.696 26.96 90.6 26.944 90.44 26.944H90.296C90.072 27.264 89.88 27.616 89.72 28C89.592 28.352 89.4 28.688 89.144 29.008C89.016 29.328 88.792 29.808 88.472 30.448C88.184 31.056 87.864 31.728 87.512 32.464C87.16 33.168 86.824 33.856 86.504 34.528C86.216 35.168 85.992 35.68 85.832 36.064V36.304C85.832 36.56 85.88 36.688 85.976 36.688ZM112.413 52.24C111.677 52.24 111.117 52 110.733 51.52C110.381 51.008 110.141 50.384 110.013 49.648C109.917 48.912 109.869 48.16 109.869 47.392C109.869 47.008 109.869 46.64 109.869 46.288C109.901 45.904 109.917 45.552 109.917 45.232C109.917 44.464 109.933 43.28 109.965 41.68C109.997 40.08 110.045 38.256 110.109 36.208C110.173 34.128 110.253 31.968 110.349 29.728C110.445 27.488 110.573 25.328 110.733 23.248C110.925 21.168 111.133 19.344 111.357 17.776C111.581 16.336 111.981 15.184 112.557 14.32C113.165 13.456 113.773 13.024 114.381 13.024C114.925 13.024 115.389 13.456 115.773 14.32C116.157 15.184 116.301 16.608 116.205 18.592C115.597 22.272 115.149 25.824 114.861 29.248C114.573 32.672 114.429 36.208 114.429 39.856C114.429 41.392 114.509 42.928 114.669 44.464C114.829 46 114.909 47.536 114.909 49.072C114.909 50.064 114.701 50.848 114.285 51.424C113.869 51.968 113.245 52.24 112.413 52.24ZM133.185 52.72C130.881 52.72 128.753 52.368 126.801 51.664C124.881 50.928 123.329 49.776 122.145 48.208C120.961 46.608 120.369 44.544 120.369 42.016C120.369 40.096 120.673 38.224 121.281 36.4C121.921 34.576 122.833 32.928 124.017 31.456C125.201 29.952 126.625 28.768 128.289 27.904C129.953 27.008 131.825 26.56 133.905 26.56C135.313 26.56 136.625 26.848 137.841 27.424C139.089 27.968 140.081 28.784 140.817 29.872C141.585 30.928 141.969 32.224 141.969 33.76C141.969 35.232 141.665 36.64 141.057 37.984C140.449 39.328 139.617 40.528 138.561 41.584C137.505 42.64 136.305 43.472 134.961 44.08C133.649 44.656 132.273 44.944 130.833 44.944C130.609 44.944 130.113 44.896 129.345 44.8C128.577 44.672 127.969 44.544 127.521 44.416C127.201 44.352 126.945 44.224 126.753 44.032C126.689 44 126.577 43.952 126.417 43.888C126.257 43.792 126.145 43.744 126.081 43.744C126.305 44.672 126.769 45.456 127.473 46.096C128.209 46.704 129.041 47.152 129.969 47.44C130.929 47.728 131.841 47.872 132.705 47.872C133.313 47.872 133.921 47.84 134.529 47.776C135.169 47.68 135.841 47.632 136.545 47.632C137.249 47.632 137.857 47.824 138.369 48.208C138.881 48.592 139.137 49.216 139.137 50.08C139.137 50.784 138.913 51.328 138.465 51.712C138.049 52.096 137.505 52.352 136.833 52.48C136.193 52.608 135.537 52.672 134.865 52.672C134.225 52.704 133.665 52.72 133.185 52.72ZM130.833 39.376C131.793 39.376 132.737 39.2 133.665 38.848C134.625 38.464 135.409 37.904 136.017 37.168C136.657 36.432 136.977 35.52 136.977 34.432C136.977 33.504 136.689 32.768 136.113 32.224C135.569 31.68 134.833 31.408 133.905 31.408C133.073 31.408 132.193 31.632 131.265 32.08C130.337 32.528 129.457 33.104 128.625 33.808C127.825 34.512 127.169 35.28 126.657 36.112C126.145 36.912 125.889 37.696 125.889 38.464V38.656C126.721 38.784 127.553 38.944 128.385 39.136C129.217 39.296 130.033 39.376 130.833 39.376ZM150.739 51.04C149.939 51.04 149.347 50.816 148.963 50.368C148.579 49.888 148.339 49.312 148.243 48.64C148.147 47.936 148.099 47.264 148.099 46.624C148.099 45.152 148.131 43.68 148.195 42.208C148.291 40.736 148.339 39.328 148.339 37.984C148.339 36.544 148.179 35.168 147.859 33.856C147.539 32.544 147.379 31.232 147.379 29.92V28.048C147.667 27.376 147.971 26.928 148.291 26.704C148.611 26.448 149.043 26.32 149.587 26.32C150.579 26.32 151.299 26.64 151.747 27.28C152.195 27.888 152.483 28.624 152.611 29.488C152.771 30.32 152.883 31.088 152.947 31.792C152.979 32.144 153.043 32.832 153.139 33.856C153.267 34.88 153.347 35.84 153.379 36.736H153.571L153.763 36.544C154.371 35.648 155.011 34.688 155.683 33.664C156.355 32.64 157.091 31.68 157.891 30.784C158.723 29.888 159.635 29.168 160.627 28.624C161.619 28.048 162.739 27.76 163.987 27.76C165.587 27.76 166.947 28.224 168.067 29.152C169.187 30.048 170.131 31.232 170.899 32.704C171.667 34.144 172.291 35.712 172.771 37.408C173.251 39.104 173.635 40.752 173.923 42.352C174.211 43.952 174.467 45.328 174.691 46.48V47.68C174.691 48.384 174.499 49.088 174.115 49.792C173.731 50.464 173.123 50.8 172.291 50.8C171.427 50.8 170.787 50.576 170.371 50.128C169.987 49.68 169.731 49.104 169.603 48.4C169.539 48.112 169.459 47.648 169.363 47.008C169.267 46.336 169.155 45.616 169.027 44.848C168.899 44.048 168.787 43.312 168.691 42.64C168.595 41.936 168.515 41.424 168.451 41.104C168.355 40.464 168.131 39.712 167.779 38.848C167.459 37.952 167.155 37.184 166.867 36.544C166.579 35.872 166.211 35.168 165.763 34.432C165.315 33.696 164.659 33.328 163.795 33.328C163.027 33.328 162.323 33.6 161.683 34.144C161.075 34.688 160.531 35.328 160.051 36.064C159.603 36.8 159.203 37.456 158.851 38.032C158.051 39.312 157.331 40.592 156.691 41.872C156.051 43.152 155.363 44.544 154.627 46.048C154.339 46.656 154.067 47.36 153.811 48.16C153.555 48.928 153.203 49.6 152.755 50.176C152.307 50.752 151.635 51.04 150.739 51.04ZM182.171 52.48C181.467 52.48 180.875 52.224 180.395 51.712C179.947 51.2 179.723 50.624 179.723 49.984V49.072L181.403 31.552V20.704C181.403 20.032 181.435 19.264 181.499 18.4C181.563 17.536 181.787 16.784 182.171 16.144C182.587 15.504 183.291 15.184 184.283 15.184C185.179 15.184 185.803 15.488 186.155 16.096C186.539 16.704 186.763 17.424 186.827 18.256C186.923 19.088 186.971 19.824 186.971 20.464C186.971 22.32 186.891 24.224 186.731 26.176C186.603 28.096 186.523 30.192 186.491 32.464H187.067C187.131 32.464 187.419 32.384 187.931 32.224C188.443 32.032 189.051 31.824 189.755 31.6C190.459 31.344 191.147 31.088 191.819 30.832C192.523 30.544 193.083 30.304 193.499 30.112C194.075 29.824 194.715 29.504 195.419 29.152C196.123 28.768 196.843 28.432 197.579 28.144C198.315 27.856 199.003 27.712 199.643 27.712C200.379 27.712 200.955 27.984 201.371 28.528C201.819 29.04 202.043 29.664 202.043 30.4C202.043 31.264 201.723 31.872 201.083 32.224C200.443 32.544 199.803 32.832 199.163 33.088C198.843 33.248 198.267 33.504 197.435 33.856C196.635 34.208 195.723 34.592 194.699 35.008C193.675 35.392 192.683 35.776 191.723 36.16C190.763 36.512 189.947 36.816 189.275 37.072V37.216L189.515 37.456C189.739 37.68 189.963 37.872 190.187 38.032C190.443 38.192 190.683 38.384 190.907 38.608C191.387 38.896 192.107 39.36 193.067 40C194.027 40.64 195.051 41.328 196.139 42.064C197.259 42.8 198.283 43.488 199.211 44.128C200.171 44.736 200.859 45.168 201.275 45.424C201.691 45.744 202.139 46.08 202.619 46.432C203.099 46.752 203.515 47.136 203.867 47.584C204.251 48 204.443 48.496 204.443 49.072C204.443 49.84 204.219 50.48 203.771 50.992C203.355 51.504 202.843 51.76 202.235 51.76C201.467 51.76 200.699 51.536 199.931 51.088C199.195 50.64 198.475 50.112 197.771 49.504C197.099 48.896 196.459 48.384 195.851 47.968C195.531 47.744 194.923 47.344 194.027 46.768C193.163 46.192 192.187 45.552 191.099 44.848C190.043 44.144 189.035 43.472 188.075 42.832C187.147 42.192 186.427 41.696 185.915 41.344H185.723L185.531 41.776L184.571 50.272C184.443 50.912 184.139 51.44 183.659 51.856C183.211 52.272 182.715 52.48 182.171 52.48ZM217.283 52.48C215.811 52.48 214.435 52.144 213.155 51.472C211.875 50.8 210.803 49.904 209.939 48.784C209.075 47.632 208.515 46.336 208.259 44.896V42.448C208.259 40.656 208.579 38.848 209.219 37.024C209.859 35.2 210.771 33.52 211.955 31.984C213.139 30.416 214.547 29.168 216.179 28.24C217.811 27.28 219.603 26.8 221.555 26.8C222.355 26.8 223.043 26.944 223.619 27.232C224.227 27.52 224.771 27.824 225.251 28.144C225.763 28.432 226.259 28.608 226.739 28.672C226.995 27.36 227.347 26.496 227.795 26.08C228.243 25.632 228.851 25.408 229.619 25.408C230.547 25.408 231.171 25.712 231.491 26.32C231.843 26.896 232.019 27.632 232.019 28.528C232.019 30.288 231.971 32.016 231.875 33.712C231.811 35.408 231.779 37.152 231.779 38.944C231.779 40.352 231.859 41.808 232.019 43.312C232.179 44.816 232.259 46.272 232.259 47.68V48.688C232.259 49.392 232.115 50.048 231.827 50.656C231.571 51.232 230.979 51.52 230.051 51.52C229.187 51.52 228.563 51.264 228.179 50.752C227.827 50.208 227.587 49.568 227.459 48.832C227.363 48.064 227.267 47.376 227.171 46.768L226.979 46.576C225.891 47.664 224.915 48.656 224.051 49.552C223.219 50.448 222.291 51.168 221.267 51.712C220.243 52.224 218.915 52.48 217.283 52.48ZM216.803 47.632C217.923 47.632 218.979 47.296 219.971 46.624C220.995 45.92 221.907 45.024 222.707 43.936C223.507 42.816 224.131 41.648 224.579 40.432C225.027 39.216 225.251 38.08 225.251 37.024C225.251 36.224 225.139 35.424 224.915 34.624C224.691 33.792 224.307 33.088 223.763 32.512C223.251 31.936 222.515 31.648 221.555 31.648C220.499 31.648 219.459 32.016 218.435 32.752C217.443 33.488 216.547 34.432 215.747 35.584C214.947 36.704 214.307 37.888 213.827 39.136C213.347 40.352 213.107 41.456 213.107 42.448C213.107 43.248 213.219 44.048 213.443 44.848C213.699 45.648 214.099 46.32 214.643 46.864C215.187 47.376 215.907 47.632 216.803 47.632Z" fill="#E472D2"/>
</g>
<defs>
<clipPath id="clip0_11164_9">
<rect width="250" height="60" fill="white"/>
</clipPath>
</defs>
</svg>
